<?xml version="1.0" encoding="utf-8"?>
<!-- Generator: Adobe Illustrator 23.0.3, SVG Export Plug-In . SVG Version: 6.00 Build 0)  -->
<svg version="1.1" id="Layer_1" xmlns="http://www.w3.org/2000/svg" xmlns:xlink="http://www.w3.org/1999/xlink" x="0px" y="0px"
	 viewBox="0 0 288 288" style="enable-background:new 0 0 288 288;" xml:space="preserve">
<style type="text/css">
	.st0{fill:#2E1D15;}
	.st1{fill:#412211;}
	.st2{fill:#F2EEE8;}
	.st3{fill:#FFFFFF;}
	.st4{fill:#231F20;}
	.st5{fill:#E1D2C5;}
	.st6{fill:#CBAB4C;}
	.st7{fill:#885F25;}
</style>
<g>
	<path class="st1" d="M201.3,122.4c-2.4-2.8-3.7-6.6-3.5-10.3c0.2-3.7,1.9-7.1,3.8-10.2c3.8-6.3,8.8-11.9,14.6-16.4
		c-0.6,4.6,1.7,9,4.1,12.9c2.4,3.9,5.2,7.8,6,12.4c0.7,4.5-0.8,9.3-3.9,12.6C216.3,129.6,206.8,128.8,201.3,122.4z"/>
	<path class="st1" d="M247.7,131.9h-121v8.5c0,4.5,3.6,8.1,8.1,8.1h69.8c-1.2,19.8-22.5,35.7-48.5,35.7c-26.8,0-48.6-16.8-48.6-37.5
		l-0.7-7c-2.7-17.8-19.4-31-38.4-27.9C54.8,114,43.7,124.7,41,138.1c-4.2,21.3,12.1,40.2,32.8,40.2c5.8,0,11.2-1.5,16-4.1
		c-0.9-1.5-1.7-3-2.4-4.6c-2.6-5.6-8.2-8.8-14.4-9.1c-2-0.1-4-0.6-5.9-1.5c-4.2-1.9-7.3-5.8-8.4-10.2c-2.5-10.3,5.3-19.5,15.2-19.5
		c6.6,0,12.3,4.2,14.5,10.1c0.3,0.9,1,3.3,0.9,7.5c0,30.7,30,55.7,66.8,55.7c30.5,0,56.2-17.1,64.2-40.4c2.7-8,10-13.5,18.5-13.5h0
		c4.9,0,8.9-4,8.9-8.9V131.9z"/>
</g>
</svg>
