<?xml version="1.0" encoding="utf-8"?>
<!-- Generator: Adobe Illustrator 23.0.3, SVG Export Plug-In . SVG Version: 6.00 Build 0)  -->
<svg version="1.1" id="Layer_1" xmlns="http://www.w3.org/2000/svg" xmlns:xlink="http://www.w3.org/1999/xlink" x="0px" y="0px"
	 viewBox="0 0 612 200.3" style="enable-background:new 0 0 612 200.3;" xml:space="preserve">
<style type="text/css">
	.st0{fill:#2E1D15;}
	.st1{fill:#412211;}
	.st2{fill:#F2EEE8;}
	.st3{fill:#FFFFFF;}
	.st4{fill:#231F20;}
	.st5{fill:#E1D2C5;}
	.st6{fill:#CBAB4C;}
	.st7{fill:#885F25;}
</style>
<g>
	<g>
		<g>
			<path class="st3" d="M316.6,61.7v25.8h-7.4v-3.2c0-4.4,2.3-11.3,3.1-13.5H311c-0.7,4-5,17.6-20.8,17.6c-11.2,0-22.4-8.8-22.4-27
				c0-13.1,7-27.2,25.2-27.2c15.9,0,21.7,11.5,23.4,16.5h-8.7c-1.5-3.7-6-9.2-14.7-9.2c-12.3,0-17.1,10.6-17.1,19.7
				c0,9.1,4.8,19.8,16.9,19.8c9.7-0.1,15.2-8,15.2-14.9c0-0.8-0.7-1.6-1.5-1.6h-14.4v-7.3h20.1C314.8,57.4,316.6,59.2,316.6,61.7z"
				/>
			<path class="st3" d="M349.7,51v7.3c-10.6,0-14.5,8-14.5,15.2v14h-8.1v-28c0-0.7-0.4-1.2-1.2-1.2h-4V51h9.1c1.9,0,3.3,1,3.3,2.9
				c0,3.1-1.1,9.4-1.1,9.4h1.1C336.3,56.1,341.5,51.1,349.7,51z"/>
			<path class="st3" d="M370,81.8c5.2,0,8.1-2.9,9.4-6.5h7.9c-1.2,5.1-5.5,13.2-17.1,13.2c-13.1,0-18-10.3-18-19.2
				c0-8.8,4.9-19.2,18-19.2c12.8,0,18.5,9.8,17.9,21h-28.4C359.9,75.3,362.3,81.8,370,81.8z M359.8,66.1l20.4,0.1
				c-0.4-4-3.5-9.4-10.2-9.4C363.4,56.8,360.4,61.9,359.8,66.1z"/>
			<path class="st3" d="M432.7,87.6h-5.8c-2.9,0-4.6-2-4.6-4.6c0-3.1,1.2-5.8,1.2-5.8h-1.2c0,0-1.8,5.6-6.3,8.5
				c-3.8,2.5-8.2,3.2-12.8,2.7c-5-0.5-9.7-4.6-9.7-10.6c0-6.5,4.3-9.3,8.8-10.3c4.8-1.1,9-1.2,12.3-1.9c2.8-0.6,5.8-1,5-3.7
				c-0.7-2.8-4-5-8.7-5c-5.9,0-9.3,3.4-9.3,7.1h-7.9c0-6.8,5.7-13.8,17.3-13.8c11.5,0,17.1,6.9,17.1,14.2v14.4
				c0,0.8,0.7,1.6,1.6,1.6h2.9V87.6z M407.3,70.6c-2.8,0.4-6.1,2.4-6.1,5.8c0,3.1,2.5,5.2,5.4,5.7c2.9,0.3,4.9,0.2,8-1.4
				c3.1-1.7,4.9-4.6,5.3-7.3c0.1-0.9,0.2-2,0.2-3.1v-2.7C418.9,68.6,415.1,69.4,407.3,70.6z"/>
			<path class="st3" d="M441.3,75.9V58.3h-11.1V51h11.1V35.2h8.1V51h10.8v7.3h-10.8v17.4c0,2.5,1.9,4.4,4.3,4.4c1.3,0,5.9,0,6.5,0
				v7.3c-2.1,0-1,0-7.3,0C445.2,87.5,441.3,81.7,441.3,75.9z"/>
			<g>
				<path class="st3" d="M307.7,115.2c0,8.9-7,14.8-15.4,14.8h-15.8v22.8h-8.1v-52.4h23.9C300.8,100.5,307.7,106.4,307.7,115.2z
					 M299.6,115.2c0-4.6-3.7-7.4-8.2-7.4h-14.9v14.9h14.9C295.9,122.7,299.6,119.9,299.6,115.2z"/>
				<path class="st3" d="M349.3,131.9v21h-8.1v-20.4c0-5.2-2.1-9.8-7.9-10.5c-7-0.7-10.3,4.2-11,10.1c-0.1,1.9-0.3,5.7-0.3,9.1v11.7
					h-8.1v-52.4h8.1v17.1c0,3.5-1.7,8.5-1.7,8.5h1.1c2.2-8.6,10.1-11.8,16.8-10.3C346.1,117.8,349.3,125.6,349.3,131.9z"/>
				<path class="st3" d="M373.5,140.2l8.8-23.8h7.9l-17.7,48.9c-1.4,4-5.2,8.5-12.4,8.5c-4.8,0-6.1,0-6.6,0v-6.9c0.9,0,6.4,0,6.9,0
					c3,0,4.4-1.9,5-3.7l3.8-10.3h-3.2l-13.2-36.5h7.9l8.8,23.8c1.4,3.5,1.6,5.4,1.6,5.4h1.1C372,145.5,372.1,143.7,373.5,140.2z"/>
				<path class="st3" d="M424,141.5c0,6.7-5.7,12.3-15.8,12.3c-10.2,0-15.8-5.5-15.8-12.2h7.4c0,3.9,3.7,5.5,8.5,5.5
					c3.7,0,7.8-1.5,7.8-5.4c0-8.8-23-0.4-23-15c0-6.3,5.4-11.3,15.2-11.3c9.7,0,15,5,15,11.3c0,0.2,0,0.4,0,0.6H416
					c0-0.2,0-0.4,0-0.6c0-3.1-3.4-4.6-7.6-4.6c-3.7,0-7.3,1.4-7.3,4.6C401.1,133.6,424,126.3,424,141.5z"/>
				<path class="st3" d="M440.3,119.1v33.7h-8.1v-27.7c0-0.8-0.7-1.5-1.5-1.5h-3.3v-7.3h10.1C439,116.4,440.3,117.6,440.3,119.1z"/>
				<path class="st3" d="M473.4,141h8.5c-1.7,6.5-6.8,12.8-17.1,12.8c-13.1,0-18-10.3-18-19.2c0-8.8,4.9-19.2,18-19.2
					c10.3,0,15.3,6.4,17.1,12.9h-8.5c-1.1-2.7-3.7-5.5-8.5-5.5c-7.2,0-9.9,6.4-9.9,11.8c0,5.5,2.7,11.8,9.9,11.8
					C469.6,146.4,472.2,143.6,473.4,141z"/>
				<path class="st3" d="M498.2,119.1v33.7h-8.1v-27.7c0-0.8-0.7-1.5-1.5-1.5h-3.3v-7.3h10.1C496.9,116.4,498.2,117.6,498.2,119.1z"
					/>
				<path class="st3" d="M544.4,153h-5.8c-2.9,0-4.6-2-4.6-4.6c0-3.1,1.2-5.8,1.2-5.8H534c0,0-1.8,5.6-6.3,8.5
					c-3.8,2.5-8.2,3.2-12.8,2.7c-5-0.5-9.7-4.6-9.7-10.6c0-6.5,4.3-9.3,8.8-10.3c4.8-1.1,9-1.2,12.3-1.9c2.8-0.6,5.8-1,5-3.7
					c-0.7-2.8-4-5-8.7-5c-5.9,0-9.3,3.4-9.3,7.1h-7.9c0-6.8,5.7-13.8,17.3-13.8c11.5,0,17.1,6.9,17.1,14.2V144
					c0,0.8,0.7,1.6,1.6,1.6h2.9V153z M519,136c-2.8,0.4-6.1,2.4-6.1,5.8c0,3.1,2.5,5.2,5.4,5.7c2.9,0.3,4.9,0.2,8-1.4
					c3.1-1.7,4.9-4.6,5.3-7.3c0.1-0.9,0.2-2,0.2-3.1V133C530.6,133.9,526.8,134.8,519,136z"/>
				<path class="st3" d="M585.7,131.9v21h-8.1v-20.4c0-5.2-2.1-9.8-7.9-10.5c-7-0.7-10.3,4.2-11,10.1c-0.1,1.9-0.3,5.7-0.3,9.1v11.7
					h-8.1v-36.5h8.1v1.9c0,3.5-1.7,7.9-1.7,7.9h1.1c2.2-8.6,10.1-11.8,16.8-10.3C582.4,117.8,585.7,125.6,585.7,131.9z"/>
				<path class="st3" d="M438.6,109.8c1.2-1.2,1.8-3.1,1.5-4.8c-0.3-1.7-1.3-3.2-2.3-4.7c-0.9-1.5-1.8-3.2-1.5-4.9
					c-2.2,1.7-4.1,3.8-5.5,6.2c-0.7,1.2-1.3,2.5-1.4,3.9c-0.1,1.4,0.4,2.8,1.3,3.9C432.7,111.9,436.3,112.2,438.6,109.8z"/>
				<path class="st3" d="M496.4,109.8c1.2-1.2,1.8-3.1,1.5-4.8c-0.3-1.7-1.3-3.2-2.3-4.7c-0.9-1.5-1.8-3.2-1.5-4.9
					c-2.2,1.7-4.1,3.8-5.5,6.2c-0.7,1.2-1.3,2.5-1.4,3.9c-0.1,1.4,0.4,2.8,1.3,3.9C490.6,111.9,494.2,112.2,496.4,109.8z"/>
			</g>
		</g>
	</g>
	<g>
		<path class="st3" d="M190.1,74.5c-2.4-2.8-3.7-6.6-3.5-10.3c0.2-3.7,1.9-7.1,3.8-10.2c3.8-6.3,8.8-11.9,14.6-16.4
			c-0.6,4.6,1.7,9,4.1,12.9s5.2,7.8,6,12.4c0.7,4.5-0.8,9.3-3.9,12.6C205.1,81.7,195.7,80.9,190.1,74.5z"/>
		<path class="st3" d="M236.5,84h-121v8.5c0,4.5,3.6,8.1,8.1,8.1h69.8c-1.2,19.8-22.5,35.7-48.5,35.7c-26.8,0-48.6-16.8-48.6-37.5
			l-0.7-7c-2.7-17.8-19.4-31-38.4-27.9c-13.6,2.1-24.7,12.8-27.4,26.3c-4.2,21.3,12.1,40.2,32.8,40.2c5.8,0,11.2-1.5,16-4.1
			c-0.9-1.5-1.7-3-2.4-4.6c-2.6-5.6-8.2-8.8-14.4-9.1c-2-0.1-4-0.6-5.9-1.5c-4.2-1.9-7.3-5.8-8.4-10.2c-2.5-10.3,5.3-19.5,15.2-19.5
			c6.6,0,12.3,4.2,14.5,10.1c0.3,0.9,1,3.3,0.9,7.5c0,30.7,30,55.7,66.8,55.7c30.5,0,56.2-17.1,64.2-40.4c2.7-8,10-13.5,18.5-13.5h0
			c4.9,0,8.9-4,8.9-8.9V84z"/>
	</g>
</g>
</svg>
