<?xml version="1.0" encoding="utf-8"?>
<!-- Generator: Adobe Illustrator 23.0.3, SVG Export Plug-In . SVG Version: 6.00 Build 0)  -->
<svg version="1.1" id="Layer_1" xmlns="http://www.w3.org/2000/svg" xmlns:xlink="http://www.w3.org/1999/xlink" x="0px" y="0px"
	 viewBox="0 0 612 143.5" style="enable-background:new 0 0 612 143.5;" xml:space="preserve">
<style type="text/css">
	.st0{fill:#2E1D15;}
	.st1{fill:#412211;}
	.st2{fill:#F2EEE8;}
	.st3{fill:#FFFFFF;}
	.st4{fill:#231F20;}
	.st5{fill:#E1D2C5;}
	.st6{fill:#CBAB4C;}
	.st7{fill:#885F25;}
</style>
<g>
	<g>
		<path class="st1" d="M192,74.9v20.6h-5.9v-2.6c0-3.5,1.9-9,2.4-10.7h-1c-0.6,3.2-4,14-16.6,14c-9,0-17.9-7-17.9-21.6
			c0-10.4,5.6-21.7,20.1-21.7c12.7,0,17.3,9.2,18.7,13.2H185c-1.2-2.9-4.8-7.3-11.8-7.3c-9.9,0-13.7,8.5-13.7,15.7
			c0,7.3,3.8,15.8,13.5,15.8c7.8-0.1,12.1-6.4,12.1-11.9c0-0.7-0.5-1.3-1.2-1.3h-11.5v-5.8h16.1C190.6,71.4,192,72.9,192,74.9z"/>
		<path class="st1" d="M218.4,66.3v5.9c-8.5,0-11.6,6.4-11.6,12.1v11.2h-6.4V73.1c0-0.6-0.4-1-1-1h-3.2v-5.9h7.2
			c1.5,0,2.6,0.8,2.6,2.3c0,2.5-0.9,7.5-0.9,7.5h0.9C207.7,70.4,211.9,66.4,218.4,66.3z"/>
		<path class="st1" d="M234.6,90.9c4.2,0,6.4-2.3,7.5-5.2h6.3c-1,4.1-4.4,10.5-13.7,10.5c-10.4,0-14.4-8.2-14.4-15.3
			c0-7,3.9-15.3,14.4-15.3c10.2,0,14.7,7.8,14.3,16.7h-22.6C226.6,85.7,228.5,90.9,234.6,90.9z M226.5,78.4l16.2,0.1
			c-0.4-3.2-2.8-7.5-8.1-7.5C229.4,70.9,227,75,226.5,78.4z"/>
		<path class="st1" d="M284.7,95.5H280c-2.3,0-3.7-1.6-3.7-3.7c0-2.5,1-4.7,1-4.7h-1c0,0-1.4,4.5-5,6.7c-3,2-6.6,2.6-10.2,2.1
			c-4-0.4-7.8-3.6-7.8-8.4c0-5.2,3.5-7.4,7-8.2c3.8-0.9,7.2-1,9.9-1.5c2.2-0.5,4.6-0.8,4-3c-0.5-2.3-3.2-4-6.9-4
			c-4.7,0-7.4,2.7-7.4,5.7h-6.3c0-5.4,4.5-11,13.8-11c9.2,0,13.7,5.5,13.7,11.3v11.5c0,0.7,0.5,1.3,1.3,1.3h2.3V95.5z M264.4,82
			c-2.3,0.4-4.9,1.9-4.9,4.7c0,2.4,2,4.1,4.3,4.5c2.3,0.2,3.9,0.2,6.4-1.1c2.5-1.4,3.9-3.6,4.2-5.8c0.1-0.7,0.2-1.6,0.2-2.4v-2.1
			C273.6,80.4,270.6,81,264.4,82z"/>
		<path class="st1" d="M291.6,86.2v-14h-8.9v-5.9h8.9V53.7h6.4v12.7h8.7v5.9H298v13.9c0,2,1.6,3.5,3.5,3.5c1,0,4.7,0,5.2,0v5.9
			c-1.7,0-0.8,0-5.8,0C294.7,95.5,291.6,90.8,291.6,86.2z"/>
		<path class="st1" d="M358.2,65.4c0,7.1-5.6,11.8-12.3,11.8h-12.6v18.2h-6.4V53.7h19C352.7,53.7,358.2,58.4,358.2,65.4z
			 M351.8,65.4c0-3.7-3-5.9-6.6-5.9h-11.9v11.9h11.9C348.8,71.4,351.8,69.1,351.8,65.4z"/>
		<path class="st1" d="M391.4,78.8v16.7H385V79.2c0-4.2-1.7-7.8-6.3-8.4c-5.6-0.6-8.2,3.3-8.8,8.1c-0.1,1.6-0.2,4.5-0.2,7.2v9.3
			h-6.4V53.7h6.4v13.6c0,2.8-1.4,6.8-1.4,6.8h0.9c1.7-6.9,8.1-9.4,13.4-8.2C388.9,67.5,391.4,73.7,391.4,78.8z"/>
		<path class="st1" d="M410.8,85.3l7-19h6.3l-14.2,39c-1.1,3.2-4.2,6.7-9.9,6.7c-3.8,0-4.8,0-5.3,0v-5.5c0.7,0,5.1,0,5.5,0
			c2.4,0,3.5-1.6,4-2.9l3-8.2h-2.6l-10.6-29.1h6.3l7,19c1.1,2.8,1.3,4.3,1.3,4.3h0.9C409.5,89.6,409.6,88.1,410.8,85.3z"/>
		<path class="st1" d="M451.1,86.4c0,5.4-4.5,9.8-12.6,9.8c-8.1,0-12.6-4.4-12.6-9.7h5.9c0,3.1,2.9,4.4,6.7,4.4
			c2.9,0,6.2-1.2,6.2-4.3c0-7-18.3-0.4-18.3-11.9c0-5,4.3-9,12.1-9c7.7,0,12,4,12,9c0,0.2,0,0.4,0,0.5h-5.9c0-0.2,0-0.3,0-0.5
			c0-2.5-2.7-3.7-6-3.7c-2.9,0-5.9,1.1-5.9,3.6C432.7,80.1,451.1,74.3,451.1,86.4z"/>
		<path class="st1" d="M464,68.5v26.9h-6.4V73.4c0-0.7-0.5-1.2-1.2-1.2h-2.6v-5.9h8.1C463,66.3,464,67.3,464,68.5z"/>
		<path class="st1" d="M490.4,86h6.8c-1.4,5.2-5.4,10.2-13.6,10.2c-10.4,0-14.3-8.2-14.3-15.3c0-7,3.9-15.3,14.3-15.3
			c8.2,0,12.2,5.1,13.6,10.3h-6.8c-0.9-2.1-3-4.4-6.8-4.4c-5.7,0-7.9,5.1-7.9,9.4c0,4.4,2.2,9.4,7.9,9.4
			C487.4,90.3,489.5,88.1,490.4,86z"/>
		<path class="st1" d="M510.2,68.5v26.9h-6.4V73.4c0-0.7-0.5-1.2-1.2-1.2H500v-5.9h8.1C509.2,66.3,510.2,67.3,510.2,68.5z"/>
		<path class="st1" d="M547.2,95.5h-4.7c-2.3,0-3.7-1.6-3.7-3.7c0-2.5,1-4.7,1-4.7h-1c0,0-1.4,4.5-5,6.7c-3,2-6.6,2.6-10.2,2.1
			c-4-0.4-7.8-3.6-7.8-8.4c0-5.2,3.5-7.4,7-8.2c3.8-0.9,7.2-1,9.9-1.5c2.2-0.5,4.6-0.8,4-3c-0.5-2.3-3.2-4-6.9-4
			c-4.7,0-7.4,2.7-7.4,5.7H516c0-5.4,4.5-11,13.8-11c9.2,0,13.7,5.5,13.7,11.3v11.5c0,0.7,0.5,1.3,1.3,1.3h2.3V95.5z M526.8,82
			c-2.3,0.4-4.9,1.9-4.9,4.7c0,2.4,2,4.1,4.3,4.5c2.3,0.2,3.9,0.2,6.4-1.1c2.5-1.4,3.9-3.6,4.2-5.8c0.1-0.7,0.2-1.6,0.2-2.4v-2.1
			C536.1,80.4,533.1,81,526.8,82z"/>
		<path class="st1" d="M580,78.8v16.7h-6.4V79.2c0-4.2-1.7-7.8-6.3-8.4c-5.6-0.6-8.2,3.3-8.8,8.1c-0.1,1.6-0.2,4.5-0.2,7.2v9.3h-6.4
			V66.3h6.4v1.5c0,2.8-1.4,6.3-1.4,6.3h0.9c1.7-6.9,8.1-9.4,13.4-8.2C577.5,67.5,580,73.7,580,78.8z"/>
	</g>
	<path class="st1" d="M462.7,61.1c1-1,1.4-2.4,1.2-3.8c-0.2-1.4-1.1-2.5-1.8-3.7c-0.7-1.2-1.4-2.5-1.2-3.9c-1.8,1.4-3.2,3-4.4,4.9
		c-0.6,0.9-1.1,2-1.1,3.1c-0.1,1.1,0.3,2.3,1,3.1C458,62.7,460.9,63,462.7,61.1z"/>
	<path class="st1" d="M508.8,61.1c1-1,1.4-2.4,1.2-3.8c-0.2-1.4-1.1-2.5-1.8-3.7c-0.7-1.2-1.4-2.5-1.2-3.9c-1.8,1.4-3.2,3-4.4,4.9
		c-0.6,0.9-1.1,2-1.1,3.1c-0.1,1.1,0.3,2.3,1,3.1C504.2,62.7,507,63,508.8,61.1z"/>
</g>
<g>
	<path class="st7" d="M112.7,55.7c-1.3-1.4-1.9-3.4-1.8-5.3c0.1-1.9,1-3.7,1.9-5.3c2-3.2,4.5-6.1,7.5-8.4c-0.3,2.4,0.9,4.6,2.1,6.7
		c1.3,2,2.7,4,3.1,6.4c0.4,2.3-0.4,4.8-2,6.5C120.4,59.4,115.5,59,112.7,55.7z"/>
	<path class="st7" d="M136.6,60.6H74.2V65c0,2.3,1.9,4.2,4.2,4.2h36c-0.6,10.2-11.6,18.4-25,18.4c-13.8,0-25.1-8.7-25.1-19.3
		l-0.4-3.6c-1.4-9.2-10-16-19.8-14.4c-7,1.1-12.7,6.6-14.1,13.5c-2.2,11,6.2,20.7,16.9,20.7c3,0,5.8-0.8,8.2-2.1
		c-0.4-0.8-0.9-1.6-1.2-2.4c-1.3-2.9-4.3-4.5-7.4-4.7c-1-0.1-2-0.3-3.1-0.8c-2.2-1-3.8-3-4.3-5.3c-1.3-5.3,2.7-10.1,7.8-10.1
		c3.4,0,6.3,2.2,7.5,5.2c0.2,0.5,0.5,1.7,0.5,3.9C54.9,84.1,70.3,97,89.3,97c15.7,0,29-8.8,33.1-20.9c1.4-4.1,5.2-7,9.5-7l0,0
		c2.5,0,4.6-2.1,4.6-4.6V60.6z"/>
</g>
</svg>
